<svg width="82" height="82" viewBox="0 0 82 82" fill="none" xmlns="http://www.w3.org/2000/svg">
<path d="M41.0002 71.6198C34.1349 69.5812 28.4325 65.4231 23.8929 59.1455C19.3533 52.868 17.0835 45.7943 17.0835 37.9246V19.4473L41.0002 10.5127L64.9168 19.4473V37.9246C64.9168 45.7921 62.647 52.8646 58.1074 59.1421C53.5678 65.4197 47.8654 69.5766 41.0002 71.6198ZM41.0002 67.9947C46.5238 66.2864 51.1363 62.913 54.8377 57.8745C58.539 52.8361 60.7029 47.2111 61.3293 40.9996H41.0002V14.1583L20.5002 21.7809V39.3972C20.5002 39.8391 20.5571 40.3732 20.671 40.9996H41.0002V67.9947Z" fill="#1181B8"/>
</svg>
