<svg width="1440" height="632" viewBox="0 0 1440 632" fill="none" xmlns="http://www.w3.org/2000/svg">
<path d="M1183.58 102.769C1047.02 102.769 1031.31 28.8541 1039.92 -7H1479.3V168.409C1479.3 215.295 1494.09 303 1387.34 303C1280.59 303 1270.73 244.53 1279.15 215.295C1304.19 177.786 1320.14 102.769 1183.58 102.769Z" fill="#BFE5F8"/>
<path d="M1160.78 68.5356C1013.71 68.5356 996.793 -18.016 1006.07 -60H1479.25V145.399C1479.25 200.301 1495.17 303 1380.21 303C1265.25 303 1248.07 227.973 1263.7 200.301C1290.67 156.379 1307.84 68.5356 1160.78 68.5356Z" stroke="black"/>
<path d="M58 93.5C58 33.1 18.6667 6 -1 0V431C109 413 91.5 311.5 58 258.5C24.5 205.5 58 169 58 93.5Z" fill="#BFE5F8"/>
<path d="M72.1998 125.106C72.1998 70.4513 15.3999 45.9292 -13 40.5V430.5C145.847 414.212 120.576 322.368 72.1998 274.41C23.8236 226.451 72.1998 193.423 72.1998 125.106Z" stroke="black"/>
<path d="M1162 553.5C1074 553.5 1049.33 606.667 1048 634L1440.5 634.5L1440.5 432.767C1440.9 429.727 1440.86 427.303 1440.5 425.5L1440.5 432.767C1438.1 451.083 1419.75 491.748 1358 553.5C1268 643.5 1272 553.5 1162 553.5Z" fill="#BFE5F8"/>
<path d="M1095.5 656.407C1096.71 623.973 1119.13 560.885 1199.11 560.885C1299.09 560.885 1295.46 667.679 1377.26 560.885C1442.7 475.45 1454.52 424.03 1452.24 409L1452.24 657L1095.5 656.407Z" stroke="black"/>
</svg>
