<svg width="139" height="139" viewBox="0 0 139 139" fill="none" xmlns="http://www.w3.org/2000/svg">
<ellipse cx="69.235" cy="69.5906" rx="69.235" ry="69.3182" fill="url(#paint0_linear_4061_8178)"/>
<g clip-path="url(#clip0_4061_8178)">
<path d="M98.4443 86.9877C98.4443 85.738 98.0074 84.6757 97.1337 83.8009L87.3975 74.053C86.5237 73.1782 85.4627 72.7408 84.2145 72.7408C82.9039 72.7408 81.7805 73.2407 80.8443 74.2405C80.9379 74.3342 81.2344 74.6232 81.7337 75.1075C82.233 75.5918 82.5684 75.9276 82.74 76.1151C82.9117 76.3025 83.1457 76.5994 83.4422 77.0055C83.7386 77.4117 83.9415 77.81 84.0507 78.2006C84.1599 78.5911 84.2145 79.0207 84.2145 79.4893C84.2145 80.7391 83.7776 81.8013 82.9039 82.6762C82.0301 83.551 80.9691 83.9884 79.7209 83.9884C79.2528 83.9884 78.8237 83.9337 78.4337 83.8243C78.0436 83.715 77.6457 83.5119 77.24 83.2151C76.8344 82.9183 76.5379 82.684 76.3507 82.5121C76.1634 82.3403 75.828 82.0044 75.3443 81.5045C74.8606 81.0046 74.572 80.7078 74.4783 80.6141C73.4486 81.5826 72.9337 82.723 72.9337 84.0352C72.9337 85.285 73.3705 86.3472 74.2443 87.222L83.8869 96.923C84.7294 97.7666 85.7904 98.1884 87.0698 98.1884C88.3181 98.1884 89.3791 97.7822 90.2528 96.9699L97.1337 90.1277C98.0074 89.2528 98.4443 88.2062 98.4443 86.9877ZM65.5379 53.9481C65.5379 52.6983 65.101 51.6361 64.2273 50.7613L54.5847 41.0602C53.711 40.1854 52.65 39.748 51.4017 39.748C50.1847 39.748 49.1237 40.1698 48.2188 41.0134L41.3379 47.8556C40.4642 48.7304 40.0273 49.7771 40.0273 50.9956C40.0273 52.2453 40.4642 53.3076 41.3379 54.1824L51.0741 63.9302C51.9166 64.7738 52.9776 65.1956 54.2571 65.1956C55.5677 65.1956 56.6911 64.7113 57.6273 63.7428C57.5337 63.6491 57.2372 63.3601 56.7379 62.8758C56.2386 62.3915 55.9032 62.0557 55.7315 61.8682C55.5599 61.6807 55.3259 61.3839 55.0294 60.9778C54.7329 60.5716 54.5301 60.1733 54.4209 59.7827C54.3117 59.3922 54.2571 58.9626 54.2571 58.4939C54.2571 57.2442 54.6939 56.1819 55.5677 55.3071C56.4415 54.4323 57.5025 53.9949 58.7507 53.9949C59.2188 53.9949 59.6478 54.0496 60.0379 54.1589C60.428 54.2683 60.8259 54.4714 61.2315 54.7682C61.6372 55.065 61.9337 55.2993 62.1209 55.4712C62.3081 55.643 62.6436 55.9789 63.1273 56.4788C63.611 56.9786 63.8996 57.2755 63.9932 57.3692C65.023 56.4006 65.5379 55.2603 65.5379 53.9481ZM107.432 86.9877C107.432 90.7369 106.105 93.9081 103.453 96.5013L96.572 103.344C93.9819 105.937 90.8145 107.233 87.0698 107.233C83.2939 107.233 80.111 105.905 77.5209 103.25L67.8783 93.5488C65.2883 90.9556 63.9932 87.7844 63.9932 84.0352C63.9932 80.1923 65.3663 76.9274 68.1124 74.2405L63.9932 70.1164C61.3095 72.8658 58.0642 74.2405 54.2571 74.2405C50.5124 74.2405 47.3294 72.9283 44.7081 70.3039L34.972 60.556C32.3507 57.9316 31.04 54.7448 31.04 50.9956C31.04 47.2464 32.3663 44.0752 35.0188 41.482L41.8996 34.6398C44.4897 32.0466 47.6571 30.75 51.4017 30.75C55.1776 30.75 58.3606 32.0778 60.9507 34.7335L70.5932 44.4345C73.1833 47.0277 74.4783 50.1989 74.4783 53.9481C74.4783 57.791 73.1053 61.0559 70.3592 63.7428L74.4783 67.8669C77.162 65.1175 80.4074 63.7428 84.2145 63.7428C87.9592 63.7428 91.1422 65.055 93.7635 67.6794L103.5 77.4273C106.121 80.0517 107.432 83.2385 107.432 86.9877Z" fill="#2B2B2B"/>
</g>
<defs>
<linearGradient id="paint0_linear_4061_8178" x1="-1.69908e-06" y1="2.62681e-06" x2="138" y2="139" gradientUnits="userSpaceOnUse">
<stop stop-color="#B0B0B0"/>
<stop offset="1" stop-color="#F6F6F6"/>
</linearGradient>
<clipPath id="clip0_4061_8178">
<rect width="77.8894" height="77.983" fill="white" transform="translate(30.291 30)"/>
</clipPath>
</defs>
</svg>
