<svg width="139" height="139" viewBox="0 0 139 139" fill="none" xmlns="http://www.w3.org/2000/svg">
<ellipse cx="69.235" cy="69.5906" rx="69.235" ry="69.3182" fill="url(#paint0_linear_4061_8011)"/>
<path fill-rule="evenodd" clip-rule="evenodd" d="M65.1792 36.499H71.67C77.7908 36.499 80.8479 36.499 82.7497 38.4031C84.6515 40.3072 84.6515 43.368 84.6515 49.4962V99.0479H100.878C101.524 99.0479 102.143 99.3046 102.6 99.7616C103.056 100.219 103.313 100.838 103.313 101.485C103.313 102.131 103.056 102.751 102.6 103.208C102.143 103.665 101.524 103.922 100.878 103.922H35.9707C35.3251 103.922 34.706 103.665 34.2495 103.208C33.7931 102.751 33.5366 102.131 33.5366 101.485C33.5366 100.838 33.7931 100.219 34.2495 99.7616C34.706 99.3046 35.3251 99.0479 35.9707 99.0479H52.1976V49.4962C52.1976 43.368 52.1976 40.3072 54.0994 38.4031C56.0012 36.499 59.0584 36.499 65.1792 36.499ZM68.4246 43.8099C69.0701 43.8099 69.6892 44.0667 70.1457 44.5237C70.6022 44.9807 70.8586 45.6006 70.8586 46.2469V50.3085H74.9153C75.5609 50.3085 76.18 50.5653 76.6365 51.0223C77.0929 51.4793 77.3494 52.0991 77.3494 52.7455C77.3494 53.3918 77.0929 54.0116 76.6365 54.4687C76.18 54.9257 75.5609 55.1824 74.9153 55.1824H70.8586V59.2441C70.8586 59.8904 70.6022 60.5102 70.1457 60.9672C69.6892 61.4243 69.0701 61.681 68.4246 61.681C67.779 61.681 67.1599 61.4243 66.7034 60.9672C66.247 60.5102 65.9905 59.8904 65.9905 59.2441V55.1824H61.9338C61.2882 55.1824 60.6691 54.9257 60.2127 54.4687C59.7562 54.0116 59.4997 53.3918 59.4997 52.7455C59.4997 52.0991 59.7562 51.4793 60.2127 51.0223C60.6691 50.5653 61.2882 50.3085 61.9338 50.3085H65.9905V46.2469C65.9905 45.6006 66.247 44.9807 66.7034 44.5237C67.1599 44.0667 67.779 43.8099 68.4246 43.8099ZM59.4997 68.9919C59.4997 68.3456 59.7562 67.7257 60.2127 67.2687C60.6691 66.8117 61.2882 66.555 61.9338 66.555H74.9153C75.5609 66.555 76.18 66.8117 76.6365 67.2687C77.0929 67.7257 77.3494 68.3456 77.3494 68.9919C77.3494 69.6382 77.0929 70.2581 76.6365 70.7151C76.18 71.1721 75.5609 71.4289 74.9153 71.4289H61.9338C61.2882 71.4289 60.6691 71.1721 60.2127 70.7151C59.7562 70.2581 59.4997 69.6382 59.4997 68.9919ZM59.4997 78.7398C59.4997 78.0935 59.7562 77.4736 60.2127 77.0166C60.6691 76.5596 61.2882 76.3028 61.9338 76.3028H74.9153C75.5609 76.3028 76.18 76.5596 76.6365 77.0166C77.0929 77.4736 77.3494 78.0935 77.3494 78.7398C77.3494 79.3861 77.0929 80.006 76.6365 80.463C76.18 80.92 75.5609 81.1768 74.9153 81.1768H61.9338C61.2882 81.1768 60.6691 80.92 60.2127 80.463C59.7562 80.006 59.4997 79.3861 59.4997 78.7398ZM68.4246 89.3C69.0701 89.3 69.6892 89.5567 70.1457 90.0138C70.6022 90.4708 70.8586 91.0906 70.8586 91.7369V99.0479H65.9905V91.7369C65.9905 91.0906 66.247 90.4708 66.7034 90.0138C67.1599 89.5567 67.779 89.3 68.4246 89.3Z" fill="#2B2B2B"/>
<path opacity="0.5" d="M98.1621 49.1347C99.2558 50.7724 99.2558 53.0534 99.2558 57.6186V99.0471H100.878C101.524 99.0471 102.143 99.3038 102.6 99.7608C103.056 100.218 103.313 100.838 103.313 101.484C103.313 102.13 103.056 102.75 102.6 103.207C102.143 103.664 101.524 103.921 100.878 103.921H35.9707C35.3251 103.921 34.706 103.664 34.2495 103.207C33.7931 102.75 33.5366 102.13 33.5366 101.484C33.5366 100.838 33.7931 100.218 34.2495 99.7608C34.706 99.3038 35.3251 99.0471 35.9707 99.0471H37.5934V57.6186C37.5934 53.0534 37.5934 50.7724 38.6871 49.1347C39.1607 48.4248 39.7695 47.8154 40.4785 47.3411C41.9097 46.3826 48.7121 46.2623 52.2203 46.2493C52.2095 47.196 52.2052 48.1816 52.2074 49.2062V53.557H44.0841C43.4386 53.557 42.8195 53.8137 42.363 54.2708C41.9065 54.7278 41.6501 55.3476 41.6501 55.994C41.6501 56.6403 41.9065 57.2601 42.363 57.7172C42.8195 58.1742 43.4386 58.4309 44.0841 58.4309H52.2074V63.3049H44.0841C43.4386 63.3049 42.8195 63.5616 42.363 64.0186C41.9065 64.4757 41.6501 65.0955 41.6501 65.7418C41.6501 66.3882 41.9065 67.008 42.363 67.465C42.8195 67.922 43.4386 68.1788 44.0841 68.1788H52.2074V73.0527H44.0841C43.4386 73.0527 42.8195 73.3095 42.363 73.7665C41.9065 74.2235 41.6501 74.8434 41.6501 75.4897C41.6501 76.136 41.9065 76.7559 42.363 77.2129C42.8195 77.6699 43.4386 77.9267 44.0841 77.9267H52.2074V99.0471H84.6613V77.9267H92.765C93.4105 77.9267 94.0297 77.6699 94.4861 77.2129C94.9426 76.7559 95.199 76.136 95.199 75.4897C95.199 74.8434 94.9426 74.2235 94.4861 73.7665C94.0297 73.3095 93.4105 73.0527 92.765 73.0527H84.6613V68.1788H92.765C93.4105 68.1788 94.0297 67.922 94.4861 67.465C94.9426 67.008 95.199 66.3882 95.199 65.7418C95.199 65.0955 94.9426 64.4757 94.4861 64.0186C94.0297 63.5616 93.4105 63.3049 92.765 63.3049H84.6613V58.4309H92.765C93.4105 58.4309 94.0297 58.1742 94.4861 57.7172C94.9426 57.2601 95.199 56.6403 95.199 55.994C95.199 55.3476 94.9426 54.7278 94.4861 54.2708C94.0297 53.8137 93.4105 53.557 92.765 53.557H84.6613V49.2029C84.6634 48.1827 84.6591 47.1971 84.6483 46.2461C88.1565 46.2623 94.9362 46.3826 96.3706 47.3411C97.0797 47.8154 97.6884 48.4248 98.1621 49.1347Z" fill="#2B2B2B"/>
<defs>
<linearGradient id="paint0_linear_4061_8011" x1="-1.69908e-06" y1="2.62681e-06" x2="138" y2="139" gradientUnits="userSpaceOnUse">
<stop stop-color="#B0B0B0"/>
<stop offset="1" stop-color="#F6F6F6"/>
</linearGradient>
</defs>
</svg>
