<svg width="139" height="139" viewBox="0 0 139 139" fill="none" xmlns="http://www.w3.org/2000/svg">
<ellipse cx="69.235" cy="69.5906" rx="69.235" ry="69.3182" fill="url(#paint0_linear_4061_2496)"/>
<path d="M42.3639 39.0594L44.1489 45.1096H91.7068C97.6783 45.1096 102.238 50.6886 100.518 56.5146L95.1469 74.7106C94.0046 78.5903 90.373 81.1767 86.3357 81.1767H56.6209C52.5836 81.1767 48.9553 78.5903 47.8097 74.7106L37.6938 40.4404C37.5936 40.1308 37.5563 39.8044 37.5841 39.4802C37.612 39.156 37.7044 38.8407 37.8559 38.5528C38.0074 38.265 38.2149 38.0104 38.4663 37.8041C38.7176 37.5979 39.0077 37.4441 39.3194 37.3519C39.631 37.2597 39.958 37.2309 40.2809 37.2672C40.6039 37.3035 40.9163 37.4042 41.1998 37.5633C41.4832 37.7225 41.732 37.9369 41.9314 38.1938C42.1307 38.4508 42.28 38.7451 42.3639 39.0594ZM64.3677 60.0563C63.7221 60.0563 63.103 60.3131 62.6465 60.7701C62.1901 61.2271 61.9336 61.847 61.9336 62.4933C61.9336 63.1396 62.1901 63.7595 62.6465 64.2165C63.103 64.6735 63.7221 64.9303 64.3677 64.9303H77.3492C77.9948 64.9303 78.6139 64.6735 79.0704 64.2165C79.5268 63.7595 79.7833 63.1396 79.7833 62.4933C79.7833 61.847 79.5268 61.2271 79.0704 60.7701C78.6139 60.3131 77.9948 60.0563 77.3492 60.0563H64.3677ZM57.8769 86.0506C55.9402 86.0506 54.0829 86.8209 52.7135 88.192C51.3441 89.563 50.5748 91.4226 50.5748 93.3615C50.5748 95.3005 51.3441 97.1601 52.7135 98.5311C54.0829 99.9022 55.9402 100.672 57.8769 100.672C59.8135 100.672 61.6709 99.9022 63.0403 98.5311C64.4097 97.1601 65.179 95.3005 65.179 93.3615C65.179 91.4226 64.4097 89.563 63.0403 88.192C61.6709 86.8209 59.8135 86.0506 57.8769 86.0506ZM83.84 86.0506C81.9034 86.0506 80.046 86.8209 78.6766 88.192C77.3072 89.563 76.5379 91.4226 76.5379 93.3615C76.5379 95.3005 77.3072 97.1601 78.6766 98.5311C80.046 99.9022 81.9034 100.672 83.84 100.672C85.7766 100.672 87.634 99.9022 89.0034 98.5311C90.3728 97.1601 91.1421 95.3005 91.1421 93.3615C91.1421 91.4226 90.3728 89.563 89.0034 88.192C87.634 86.8209 85.7766 86.0506 83.84 86.0506Z" fill="#2B2B2B"/>
<defs>
<linearGradient id="paint0_linear_4061_2496" x1="-1.69908e-06" y1="2.62681e-06" x2="138" y2="139" gradientUnits="userSpaceOnUse">
<stop stop-color="#B0B0B0"/>
<stop offset="1" stop-color="#F6F6F6"/>
</linearGradient>
</defs>
</svg>
