<svg width="139" height="139" viewBox="0 0 139 139" fill="none" xmlns="http://www.w3.org/2000/svg">
<ellipse cx="69.235" cy="69.5906" rx="69.235" ry="69.3182" fill="url(#paint0_linear_4061_4486)"/>
<path d="M91.9515 78.8047V77.0014L56.5118 63.9945H53.0068V53.6845L74.1018 38.624L95.1968 53.6845V78.8015L91.9515 78.8047ZM76.0361 57.4309H78.6583V54.8055H76.0361V57.4309ZM69.5453 57.4309H72.1676V54.8055H69.5453V57.4309ZM76.0361 63.9295H78.6583V61.3041H76.0361V63.9295ZM69.5453 63.9295H72.1676V61.3041H69.5453V63.9295ZM38.0293 98.2355V71.7408H47.7655V98.2355H38.0293ZM75.7245 100.861L51.0076 93.6313V71.7408H58.7316L82.5918 80.5529V85.7387H72.8556L64.4273 82.7331L63.418 85.1766L72.729 88.2374H98.4422V93.3616L75.7245 100.861Z" fill="#2B2B2B"/>
<defs>
<linearGradient id="paint0_linear_4061_4486" x1="-1.69908e-06" y1="2.62681e-06" x2="138" y2="139" gradientUnits="userSpaceOnUse">
<stop stop-color="#B0B0B0"/>
<stop offset="1" stop-color="#F6F6F6"/>
</linearGradient>
</defs>
</svg>
