<svg width="46" height="58" viewBox="0 0 46 58" fill="none" xmlns="http://www.w3.org/2000/svg">
<path d="M23.0002 57.38C16.6373 55.4905 11.3521 51.6367 7.14466 45.8185C2.93722 40.0003 0.833496 33.4442 0.833496 26.1503V9.02497L23.0002 0.744141L45.1668 9.02497V26.1503C45.1668 33.4421 43.0631 39.9971 38.8557 45.8153C34.6482 51.6335 29.3631 55.4863 23.0002 57.38ZM23.0002 54.0201C28.1196 52.4368 32.3946 49.3103 35.8252 44.6405C39.2557 39.9707 41.2613 34.7573 41.8418 29.0003H23.0002V4.12297L4.00016 11.1878V27.5151C4.00016 27.9247 4.05294 28.4198 4.1585 29.0003H23.0002V54.0201Z" fill="#FCFCFC"/>
</svg>
