<svg width="159" height="158" viewBox="0 0 159 158" fill="none" xmlns="http://www.w3.org/2000/svg">
<g filter="url(#filter0_d_1830_15059)">
<rect x="4.67676" width="150" height="150" rx="75" fill="url(#paint0_linear_1830_15059)"/>
<rect x="4.67676" width="150" height="150" rx="75" fill="black" fill-opacity="0.2"/>
</g>
<path d="M66.7037 89.3738C67.394 89.3738 67.9724 89.1395 68.439 88.6708C68.9034 88.2043 69.1357 87.6248 69.1357 86.9323C69.1357 86.2399 68.9013 85.6614 68.4327 85.197C67.964 84.7325 67.3845 84.5003 66.6942 84.5003C66.0038 84.5003 65.4254 84.7347 64.9588 85.2033C64.4923 85.672 64.2601 86.2515 64.2622 86.9418C64.2643 87.6322 64.4986 88.2095 64.9652 88.674C65.4317 89.1384 66.0112 89.3738 66.7037 89.3738ZM66.7037 77.4355C67.394 77.4355 67.9724 77.2022 68.439 76.7357C68.9034 76.267 69.1357 75.6864 69.1357 74.994C69.1357 74.3015 68.9013 73.7242 68.4327 73.2618C67.964 72.7995 67.3845 72.5673 66.6942 72.5652C66.0038 72.563 65.4254 72.7963 64.9588 73.265C64.4923 73.7337 64.2601 74.3142 64.2622 75.0067C64.2643 75.6991 64.4986 76.2765 64.9652 76.7388C65.4317 77.2012 66.0112 77.4334 66.7037 77.4355ZM66.7037 65.5003C67.394 65.5003 67.9724 65.267 68.439 64.8005C68.9034 64.3318 69.1357 63.7513 69.1357 63.0588C69.1357 62.3664 68.9013 61.789 68.4327 61.3267C67.964 60.8643 67.3845 60.6321 66.6942 60.63C66.0038 60.6279 65.4254 60.8612 64.9588 61.3298C64.4944 61.7985 64.2622 62.378 64.2622 63.0683C64.2622 63.7587 64.4965 64.3371 64.9652 64.8037C65.4338 65.2702 66.0133 65.5024 66.7037 65.5003ZM76.4412 88.522H93.4937V85.3553H76.4412V88.522ZM76.4412 76.5837H93.4937V73.417H76.4412V76.5837ZM76.4412 64.6453H93.4937V61.4787H76.4412V64.6453ZM58.7838 100.334C57.3251 100.334 56.108 99.846 55.1327 98.8707C54.1573 97.8953 53.6686 96.6772 53.6665 95.2163V54.7843C53.6665 53.3255 54.1552 52.1085 55.1327 51.1332C56.1101 50.1578 57.3272 49.6691 58.7838 49.667H99.219C100.676 49.667 101.893 50.1557 102.87 51.1332C103.848 52.1106 104.335 53.3277 104.333 54.7843V95.2195C104.333 96.6762 103.846 97.8932 102.87 98.8707C101.895 99.8481 100.677 100.336 99.2158 100.334H58.7838ZM58.7838 97.167H99.219C99.7046 97.167 100.151 96.9643 100.559 96.559C100.966 96.1537 101.169 95.7061 101.167 95.2163V54.7843C101.167 54.2967 100.964 53.8491 100.559 53.4417C100.153 53.0342 99.7056 52.8315 99.2158 52.8337H58.7838C58.2962 52.8337 57.8486 53.0363 57.4412 53.4417C57.0337 53.847 56.8311 54.2945 56.8332 54.7843V95.2195C56.8332 95.705 57.0358 96.1515 57.4412 96.559C57.8465 96.9664 58.293 97.1691 58.7807 97.167" fill="#FCFCFC"/>
<defs>
<filter id="filter0_d_1830_15059" x="0.676758" y="0" width="158" height="158" filterUnits="userSpaceOnUse" color-interpolation-filters="sRGB">
<feFlood flood-opacity="0" result="BackgroundImageFix"/>
<feColorMatrix in="SourceAlpha" type="matrix" values="0 0 0 0 0 0 0 0 0 0 0 0 0 0 0 0 0 0 127 0" result="hardAlpha"/>
<feOffset dy="4"/>
<feGaussianBlur stdDeviation="2"/>
<feComposite in2="hardAlpha" operator="out"/>
<feColorMatrix type="matrix" values="0 0 0 0 0 0 0 0 0 0 0 0 0 0 0 0 0 0 0.25 0"/>
<feBlend mode="normal" in2="BackgroundImageFix" result="effect1_dropShadow_1830_15059"/>
<feBlend mode="normal" in="SourceGraphic" in2="effect1_dropShadow_1830_15059" result="shape"/>
</filter>
<linearGradient id="paint0_linear_1830_15059" x1="5.00098" y1="-2.77651e-06" x2="155.001" y2="150" gradientUnits="userSpaceOnUse">
<stop stop-color="#46B9EA"/>
<stop offset="1" stop-color="#1181B8"/>
</linearGradient>
</defs>
</svg>
