<svg width="76" height="76" viewBox="0 0 76 76" fill="none" xmlns="http://www.w3.org/2000/svg">
<path d="M35.625 57V52.25H27.075L52.25 27.075V35.625H57V19H40.375V23.75H48.925L23.75 48.925V40.375H19V57H35.625ZM59.375 47.5V52.25H66.5C69.1125 52.25 71.25 50.1125 71.25 47.5V40.375H66.5V47.5H59.375ZM66.5 23.75H71.25V33.25H66.5V23.75ZM59.375 4.75V9.5H66.5V16.625H71.25V9.5C71.25 6.8875 69.1125 4.75 66.5 4.75H59.375ZM42.75 4.75H52.25V9.5H42.75V4.75Z" fill="#FCFCFC"/>
<path d="M23.75 9.5V16.625H28.5V9.5H35.625V4.75H28.5C25.8875 4.75 23.75 6.8875 23.75 9.5ZM28.5 23.75H9.5C6.8875 23.75 4.75 25.8875 4.75 28.5V66.5C4.75 69.1125 6.8875 71.25 9.5 71.25H47.5C50.1125 71.25 52.25 69.1125 52.25 66.5V47.5H47.5V66.5H9.5V28.5H28.5V23.75Z" fill="#FCFCFC"/>
</svg>
