<svg width="159" height="158" viewBox="0 0 159 158" fill="none" xmlns="http://www.w3.org/2000/svg">
<g filter="url(#filter0_d_4_2)">
<rect x="4.67578" width="150" height="150" rx="75" fill="url(#paint0_linear_4_2)"/>
<rect x="4.67578" width="150" height="150" rx="75" fill="black" fill-opacity="0.2"/>
</g>
<path d="M48.125 51.25C48.125 49.3603 48.8757 47.5481 50.2119 46.2119C51.5481 44.8757 53.3604 44.125 55.25 44.125H64.75C66.6397 44.125 68.452 44.8757 69.7882 46.2119C71.1244 47.5481 71.875 49.3603 71.875 51.25V60.75C71.875 62.6397 71.1244 64.4519 69.7882 65.7881C68.452 67.1243 66.6397 67.875 64.75 67.875H62.375V80.3818C62.7363 80.5906 63.0685 80.8461 63.363 81.1418L72.8702 90.6465C73.1626 90.9385 73.4157 91.2675 73.623 91.625H86.125V89.25C86.125 87.3603 86.8757 85.5481 88.2119 84.2119C89.5481 82.8757 91.3604 82.125 93.25 82.125H102.75C104.64 82.125 106.452 82.8757 107.788 84.2119C109.124 85.5481 109.875 87.3603 109.875 89.25V98.75C109.875 100.64 109.124 102.452 107.788 103.788C106.452 105.124 104.64 105.875 102.75 105.875H93.25C91.3604 105.875 89.5481 105.124 88.2119 103.788C86.8757 102.452 86.125 100.64 86.125 98.75V96.375H73.6278C73.4251 96.7313 73.1718 97.0606 72.8678 97.363L63.3654 106.873C62.4746 107.763 61.2667 108.263 60.0072 108.263C58.7476 108.263 57.5397 107.763 56.6489 106.873L47.1442 97.3654C46.2537 96.4746 45.7534 95.2667 45.7534 94.0071C45.7534 92.7476 46.2537 91.5396 47.1442 90.6489L56.6489 81.1441C56.9497 80.8433 57.2759 80.5923 57.6274 80.3913V67.875H55.25C53.3604 67.875 51.5481 67.1243 50.2119 65.7881C48.8757 64.4519 48.125 62.6397 48.125 60.75V51.25ZM60.0048 84.5L50.5 94.0048L60.0048 103.509L69.5 94.0166V93.9929L60.0048 84.5ZM55.25 48.875C54.6201 48.875 54.016 49.1252 53.5707 49.5706C53.1253 50.016 52.875 50.6201 52.875 51.25V60.75C52.875 61.3799 53.1253 61.984 53.5707 62.4294C54.016 62.8748 54.6201 63.125 55.25 63.125H64.75C65.3799 63.125 65.984 62.8748 66.4294 62.4294C66.8748 61.984 67.125 61.3799 67.125 60.75V51.25C67.125 50.6201 66.8748 50.016 66.4294 49.5706C65.984 49.1252 65.3799 48.875 64.75 48.875H55.25ZM93.25 86.875C92.6201 86.875 92.016 87.1252 91.5706 87.5706C91.1253 88.016 90.875 88.6201 90.875 89.25V98.75C90.875 99.3799 91.1253 99.984 91.5706 100.429C92.016 100.875 92.6201 101.125 93.25 101.125H102.75C103.38 101.125 103.984 100.875 104.429 100.429C104.875 99.984 105.125 99.3799 105.125 98.75V89.25C105.125 88.6201 104.875 88.016 104.429 87.5706C103.984 87.1252 103.38 86.875 102.75 86.875H93.25Z" fill="#FCFCFC"/>
<defs>
<filter id="filter0_d_4_2" x="0.675781" y="0" width="158" height="158" filterUnits="userSpaceOnUse" color-interpolation-filters="sRGB">
<feFlood flood-opacity="0" result="BackgroundImageFix"/>
<feColorMatrix in="SourceAlpha" type="matrix" values="0 0 0 0 0 0 0 0 0 0 0 0 0 0 0 0 0 0 127 0" result="hardAlpha"/>
<feOffset dy="4"/>
<feGaussianBlur stdDeviation="2"/>
<feComposite in2="hardAlpha" operator="out"/>
<feColorMatrix type="matrix" values="0 0 0 0 0 0 0 0 0 0 0 0 0 0 0 0 0 0 0.25 0"/>
<feBlend mode="normal" in2="BackgroundImageFix" result="effect1_dropShadow_4_2"/>
<feBlend mode="normal" in="SourceGraphic" in2="effect1_dropShadow_4_2" result="shape"/>
</filter>
<linearGradient id="paint0_linear_4_2" x1="5" y1="-2.77651e-06" x2="155" y2="150" gradientUnits="userSpaceOnUse">
<stop stop-color="#46B9EA"/>
<stop offset="1" stop-color="#1181B8"/>
</linearGradient>
</defs>
</svg>
