<svg width="76" height="76" viewBox="0 0 76 76" fill="none" xmlns="http://www.w3.org/2000/svg">
<path d="M7.12503 14.25C7.12503 12.3603 7.8757 10.5481 9.21189 9.21186C10.5481 7.87567 12.3604 7.125 14.25 7.125H23.75C25.6397 7.125 27.452 7.87567 28.7882 9.21186C30.1244 10.5481 30.875 12.3603 30.875 14.25V23.75C30.875 25.6397 30.1244 27.4519 28.7882 28.7881C27.452 30.1243 25.6397 30.875 23.75 30.875H21.375V43.3818C21.7363 43.5906 22.0685 43.8461 22.363 44.1418L31.8702 53.6465C32.1626 53.9385 32.4157 54.2675 32.623 54.625H45.125V52.25C45.125 50.3603 45.8757 48.5481 47.2119 47.2119C48.5481 45.8757 50.3604 45.125 52.25 45.125H61.75C63.6397 45.125 65.452 45.8757 66.7882 47.2119C68.1244 48.5481 68.875 50.3603 68.875 52.25V61.75C68.875 63.6397 68.1244 65.4519 66.7882 66.7881C65.452 68.1243 63.6397 68.875 61.75 68.875H52.25C50.3604 68.875 48.5481 68.1243 47.2119 66.7881C45.8757 65.4519 45.125 63.6397 45.125 61.75V59.375H32.6278C32.4251 59.7313 32.1718 60.0606 31.8678 60.363L22.3654 69.8725C21.4746 70.763 20.2667 71.2632 19.0072 71.2632C17.7476 71.2632 16.5397 70.763 15.6489 69.8725L6.14415 60.3654C5.25367 59.4746 4.75342 58.2667 4.75342 57.0071C4.75342 55.7476 5.25367 54.5396 6.14415 53.6489L15.6489 44.1441C15.9497 43.8433 16.2759 43.5923 16.6274 43.3913V30.875H14.25C12.3604 30.875 10.5481 30.1243 9.21189 28.7881C7.8757 27.4519 7.12503 25.6397 7.12503 23.75V14.25ZM19.0048 47.5L9.50003 57.0048L19.0048 66.5095L28.5 57.0166V56.9929L19.0048 47.5ZM14.25 11.875C13.6201 11.875 13.016 12.1252 12.5707 12.5706C12.1253 13.016 11.875 13.6201 11.875 14.25V23.75C11.875 24.3799 12.1253 24.984 12.5707 25.4294C13.016 25.8748 13.6201 26.125 14.25 26.125H23.75C24.3799 26.125 24.984 25.8748 25.4294 25.4294C25.8748 24.984 26.125 24.3799 26.125 23.75V14.25C26.125 13.6201 25.8748 13.016 25.4294 12.5706C24.984 12.1252 24.3799 11.875 23.75 11.875H14.25ZM52.25 49.875C51.6201 49.875 51.016 50.1252 50.5706 50.5706C50.1253 51.016 49.875 51.6201 49.875 52.25V61.75C49.875 62.3799 50.1253 62.984 50.5706 63.4294C51.016 63.8748 51.6201 64.125 52.25 64.125H61.75C62.3799 64.125 62.984 63.8748 63.4294 63.4294C63.8748 62.984 64.125 62.3799 64.125 61.75V52.25C64.125 51.6201 63.8748 51.016 63.4294 50.5706C62.984 50.1252 62.3799 49.875 61.75 49.875H52.25Z" fill="#FCFCFC"/>
</svg>
