<svg width="76" height="76" viewBox="0 0 76 76" fill="none" xmlns="http://www.w3.org/2000/svg">
<path d="M25.7037 52.3738C26.394 52.3738 26.9724 52.1395 27.439 51.6708C27.9034 51.2043 28.1357 50.6248 28.1357 49.9323C28.1357 49.2399 27.9013 48.6614 27.4327 48.197C26.964 47.7325 26.3845 47.5003 25.6942 47.5003C25.0038 47.5003 24.4254 47.7347 23.9588 48.2033C23.4923 48.672 23.2601 49.2515 23.2622 49.9418C23.2643 50.6322 23.4986 51.2095 23.9652 51.674C24.4317 52.1384 25.0112 52.3738 25.7037 52.3738ZM25.7037 40.4355C26.394 40.4355 26.9724 40.2022 27.439 39.7357C27.9034 39.267 28.1357 38.6864 28.1357 37.994C28.1357 37.3015 27.9013 36.7242 27.4327 36.2618C26.964 35.7995 26.3845 35.5673 25.6942 35.5652C25.0038 35.563 24.4254 35.7963 23.9588 36.265C23.4923 36.7337 23.2601 37.3142 23.2622 38.0067C23.2643 38.6991 23.4986 39.2765 23.9652 39.7388C24.4317 40.2012 25.0112 40.4334 25.7037 40.4355ZM25.7037 28.5003C26.394 28.5003 26.9724 28.267 27.439 27.8005C27.9034 27.3318 28.1357 26.7513 28.1357 26.0588C28.1357 25.3664 27.9013 24.789 27.4327 24.3267C26.964 23.8643 26.3845 23.6321 25.6942 23.63C25.0038 23.6279 24.4254 23.8612 23.9588 24.3298C23.4944 24.7985 23.2622 25.378 23.2622 26.0683C23.2622 26.7587 23.4965 27.3371 23.9652 27.8037C24.4338 28.2702 25.0133 28.5024 25.7037 28.5003ZM35.4412 51.522H52.4937V48.3553H35.4412V51.522ZM35.4412 39.5837H52.4937V36.417H35.4412V39.5837ZM35.4412 27.6453H52.4937V24.4787H35.4412V27.6453ZM17.7838 63.3337C16.3251 63.3337 15.108 62.846 14.1327 61.8707C13.1573 60.8953 12.6686 59.6772 12.6665 58.2163V17.7843C12.6665 16.3255 13.1552 15.1085 14.1327 14.1332C15.1101 13.1578 16.3272 12.6691 17.7838 12.667H58.219C59.6757 12.667 60.8927 13.1557 61.8702 14.1332C62.8476 15.1106 63.3353 16.3277 63.3332 17.7843V58.2195C63.3332 59.6762 62.8455 60.8932 61.8702 61.8707C60.8948 62.8481 59.6767 63.3358 58.2158 63.3337H17.7838ZM17.7838 60.167H58.219C58.7046 60.167 59.1511 59.9643 59.5585 59.559C59.9659 59.1537 60.1686 58.7061 60.1665 58.2163V17.7843C60.1665 17.2967 59.9638 16.8491 59.5585 16.4417C59.1532 16.0342 58.7056 15.8315 58.2158 15.8337H17.7838C17.2962 15.8337 16.8486 16.0363 16.4412 16.4417C16.0337 16.847 15.8311 17.2945 15.8332 17.7843V58.2195C15.8332 58.705 16.0358 59.1515 16.4412 59.559C16.8465 59.9664 17.293 60.1691 17.7807 60.167" fill="#FCFCFC"/>
</svg>
