<svg width="139" height="139" viewBox="0 0 139 139" fill="none" xmlns="http://www.w3.org/2000/svg">
<ellipse cx="69.235" cy="69.5906" rx="69.235" ry="69.3182" fill="url(#paint0_linear_4082_2054)"/>
<path d="M68.4246 81.9883H70.7775V79.3888C72.292 79.1722 73.5772 78.5494 74.633 77.5205C75.6888 76.4916 76.2157 75.1648 76.2135 73.5401C76.2135 72.1321 75.6726 70.9537 74.5908 70.0049C73.509 69.0561 72.2649 68.2849 70.8586 67.6914V61.6802C71.3995 61.8427 71.8463 62.1135 72.199 62.4925C72.5516 62.8716 72.808 63.3319 72.9681 63.8735L75.889 62.655C75.5103 61.5178 74.8613 60.6112 73.9417 59.9354C73.0222 59.2595 71.9945 58.8122 70.8586 58.5934V55.994H68.4246V58.5122C66.9101 58.6746 65.626 59.2303 64.5723 60.179C63.5186 61.1278 62.9907 62.3864 62.9885 63.9547C62.9885 65.4169 63.5435 66.6354 64.6534 67.6102C65.7634 68.585 67.0204 69.3702 68.4246 69.9659V76.3833C67.5591 76.1125 66.8289 75.6522 66.2339 75.0023C65.6389 74.3525 65.2333 73.5943 65.0169 72.7278L62.1772 73.9463C62.6099 75.4626 63.3672 76.7082 64.449 77.683C65.5308 78.6578 66.856 79.2535 68.4246 79.4701V81.9883ZM70.8586 76.302V70.9407C71.4536 71.2115 71.9815 71.5364 72.4424 71.9155C72.9032 72.2946 73.1325 72.8632 73.1304 73.6214C73.1304 74.4878 72.914 75.0976 72.4813 75.4507C72.0486 75.8038 71.5077 76.0876 70.8586 76.302ZM68.4246 66.6354C67.8296 66.3646 67.2887 66.0397 66.8019 65.6606C66.3151 65.2815 66.0717 64.7129 66.0717 63.9547C66.0717 63.1966 66.3151 62.6409 66.8019 62.2878C67.2887 61.9347 67.8296 61.7051 68.4246 61.599V66.6354ZM56.2544 91.7361C49.9258 91.7361 44.558 89.5299 40.1507 85.1173C35.7435 80.7048 33.5388 75.3294 33.5366 68.9911C33.5345 62.6528 35.7392 57.2785 40.1507 52.8681C44.5623 48.4578 49.9302 46.2504 56.2544 46.2461H82.2175C88.546 46.2461 93.9149 48.4534 98.3243 52.8681C102.734 57.2828 104.937 62.6572 104.935 68.9911C104.933 75.3251 102.729 80.7005 98.3243 85.1173C93.9193 89.5342 88.5503 91.7405 82.2175 91.7361H56.2544Z" fill="#2B2B2B"/>
<defs>
<linearGradient id="paint0_linear_4082_2054" x1="-1.69908e-06" y1="2.62681e-06" x2="138" y2="139" gradientUnits="userSpaceOnUse">
<stop stop-color="#B0B0B0"/>
<stop offset="1" stop-color="#F6F6F6"/>
</linearGradient>
</defs>
</svg>
